<svg width="20" height="20" viewBox="0 0 20 20" fill="none" xmlns="http://www.w3.org/2000/svg">
<rect width="20" height="20" fill="white"/>
<path d="M8.80758 1.17285C3.95121 1.17285 0 4.79727 0 9.25198C0 13.7069 3.95121 17.3311 8.80758 17.3311C13.6642 17.3311 17.6152 13.7069 17.6152 9.25198C17.6152 4.79727 13.6642 1.17285 8.80758 1.17285ZM8.80758 15.8396C4.8477 15.8396 1.62602 12.8844 1.62602 9.25202C1.62602 5.61965 4.8477 2.66438 8.80758 2.66438C12.7675 2.66438 15.9891 5.61961 15.9891 9.25198C15.9891 12.8844 12.7675 15.8396 8.80758 15.8396Z" fill="#FDDB16"/>
<path d="M19.7615 18.2457L15.1002 13.97C14.7826 13.6786 14.2682 13.6786 13.9506 13.97C13.633 14.2611 13.633 14.7334 13.9506 15.0245L18.6119 19.3002C18.7707 19.4459 18.9785 19.5187 19.1867 19.5187C19.3945 19.5187 19.6026 19.4459 19.7615 19.3002C20.0791 19.0091 20.0791 18.5368 19.7615 18.2457Z" fill="#FDDB16"/>
</svg>
